<?xml version="1.0" encoding="UTF-8" standalone="no"?>
<!-- Created with Inkscape (http://www.inkscape.org/) -->

<svg
   width="1106"
   height="800"
   viewBox="0 0 292.62913 211.66667"
   version="1.1"
   id="svg1"
   sodipodi:docname="Zeichnung.svg"
   xml:space="preserve"
   inkscape:version="1.4.3 (0d15f75042, 2025-12-25)"
   inkscape:export-filename="Zeichnung.plain.svg"
   inkscape:export-xdpi="96"
   inkscape:export-ydpi="96"
   xmlns:inkscape="http://www.inkscape.org/namespaces/inkscape"
   xmlns:sodipodi="http://sodipodi.sourceforge.net/DTD/sodipodi-0.dtd"
   xmlns="http://www.w3.org/2000/svg"
   xmlns:svg="http://www.w3.org/2000/svg"><sodipodi:namedview
   id="namedview1"
   pagecolor="#505050"
   bordercolor="#eeeeee"
   borderopacity="1"
   inkscape:showpageshadow="0"
   inkscape:pageopacity="0"
   inkscape:pagecheckerboard="0"
   inkscape:deskcolor="#505050"
   inkscape:zoom="0.53925855"
   inkscape:cx="450.61872"
   inkscape:cy="141.86145"
   inkscape:window-width="1786"
   inkscape:window-height="1047"
   inkscape:window-x="0"
   inkscape:window-y="0"
   inkscape:window-maximized="1"
   inkscape:current-layer="g14-6"><inkscape:page
     x="0"
     y="0"
     width="292.62912"
     height="211.66667"
     id="page2"
     margin="0"
     bleed="0" /></sodipodi:namedview>
         <defs
   id="defs2">

    <pattern
   id="ventilationGrid"
   x="0"
   y="0"
   width="5"
   height="5"
   patternUnits="userSpaceOnUse">

      <circle
   cx="2"
   cy="2"
   r="1"
   fill="#1a1a1a"
   id="circle1" />

    </pattern>

  </defs>
  <defs
   id="defs1"><linearGradient
     id="woodGradH"
     x1="0"
     y1="0"
     x2="1"
     y2="0"><stop
       offset="0%"
       stop-color="#1A0803"
       id="stop1" /><stop
       offset="6%"
       stop-color="#4A2010"
       id="stop2" /><stop
       offset="14%"
       stop-color="#261008"
       id="stop3" /><stop
       offset="24%"
       stop-color="#5A280C"
       id="stop4" /><stop
       offset="35%"
       stop-color="#361508"
       id="stop5" /><stop
       offset="46%"
       stop-color="#6A3010"
       id="stop6" /><stop
       offset="56%"
       stop-color="#361508"
       id="stop7" /><stop
       offset="67%"
       stop-color="#5A280C"
       id="stop8" /><stop
       offset="78%"
       stop-color="#261008"
       id="stop9" /><stop
       offset="89%"
       stop-color="#4A2010"
       id="stop10" /><stop
       offset="100%"
       stop-color="#1A0803"
       id="stop11" /></linearGradient><pattern
     id="woodPat"
     x="11.676"
     y="10.064"
     width="170.388"
     height="48.353"
     patternUnits="userSpaceOnUse"><rect
       width="170.388"
       height="48.353"
       fill="url(#woodGradH)"
       id="rect11" /><path
       d="M0,3   C28,2.3 56,3.8  85,3.2  C114,2.6 142,4.0 170,3"
       stroke="#8B4010"
       stroke-width="0.45"
       fill="none"
       opacity="0.5"
       id="path11" /><path
       d="M0,7.5 C22,8.3 52,6.8  90,7.6  C128,8.4 155,7.0 170,7.8"
       stroke="#3D1A08"
       stroke-width="0.65"
       fill="none"
       opacity="0.65"
       id="path12" /><path
       d="M0,12  C35,11.2 68,13  100,12.4 C132,11.7 155,13 170,12"
       stroke="#7A3010"
       stroke-width="0.40"
       fill="none"
       opacity="0.45"
       id="path13" /><path
       d="M0,17  C20,17.8 55,16.4 88,17.2 C121,18  150,16.8 170,17.5"
       stroke="#502010"
       stroke-width="0.60"
       fill="none"
       opacity="0.60"
       id="path14" /><path
       d="M0,22  C38,21.2 72,22.8 104,22.1 C136,21.4 158,22.9 170,22"
       stroke="#6A2E0E"
       stroke-width="0.50"
       fill="none"
       opacity="0.50"
       id="path15" /><path
       d="M0,27  C30,27.8 62,26.4 98,27.2  C130,28  155,26.8 170,27.5"
       stroke="#3D1A08"
       stroke-width="0.65"
       fill="none"
       opacity="0.60"
       id="path16" /><path
       d="M0,32  C25,31.3 60,32.8 92,32.1  C124,31.4 152,32.8 170,32"
       stroke="#7A3010"
       stroke-width="0.45"
       fill="none"
       opacity="0.50"
       id="path17" /><path
       d="M0,37  C32,37.8 66,36.3 100,37.1 C134,37.9 158,36.5 170,37.2"
       stroke="#502010"
       stroke-width="0.55"
       fill="none"
       opacity="0.55"
       id="path18" /><path
       d="M0,42  C28,41.2 62,42.8 96,42.0  C130,41.3 156,42.6 170,42"
       stroke="#6A2E0E"
       stroke-width="0.40"
       fill="none"
       opacity="0.45"
       id="path19" /><path
       d="M0,46.5 C24,47.3 58,45.9 92,46.7 C126,47.5 152,46.1 170,46.8"
       stroke="#3D1A08"
       stroke-width="0.60"
       fill="none"
       opacity="0.60"
       id="path20" /></pattern><filter
     id="blueGlow"
     x="-0.26298393"
     y="-0.26298393"
     width="1.5259679"
     height="1.5259679"><feGaussianBlur
       in="SourceGraphic"
       stdDeviation="2.5"
       result="blur"
       id="feGaussianBlur20" /><feFlood
       flood-color="#2288ff"
       flood-opacity="0.9"
       result="color"
       id="feFlood20" /><feComposite
       in="color"
       in2="blur"
       operator="in"
       result="glow"
       id="feComposite20" /><feMerge
       id="feMerge22"><feMergeNode
         in="glow"
         id="feMergeNode20" /><feMergeNode
         in="glow"
         id="feMergeNode21" /><feMergeNode
         in="SourceGraphic"
         id="feMergeNode22" /></feMerge></filter></defs><g
   id="layer1-7"
   transform="matrix(1.6837987,0,0,1.7534248,-16.903467,-14.23126)"><!-- Unterer Server-Körper (hellgrau) --><rect
     style="fill:#f2f2f2;stroke:#b0d7d7;stroke-width:0.132821;stroke-linejoin:round;stroke-dasharray:none;stroke-opacity:1"
     id="rect2-3"
     width="172.81279"
     height="119.40358"
     x="10.474553"
     y="8.9525585"
     inkscape:label="Server"
     ry="2.4532139" /><!-- Lüftungsschlitze im weißen Unterbereich (3 Reihen × 13 Löcher) --><rect
     fill="url(#ventilationGrid)"
     rx="4"
     id="rect39"
     width="165.5358"
     height="60.028885"
     x="13.487155"
     y="63.749977"
     ry="2.4532139" /><!-- Dunkles Akazienholz-Panel (oben) --><rect
     id="rect3-5"
     width="170.38785"
     height="48.353222"
     x="11.676163"
     y="10.06439"
     ry="1.7172499"
     style="fill:url(#woodPat);stroke:#0a0502;stroke-width:0.8"
     inkscape:label="Wooden Panel" /><!-- Power-Button-Gruppe (originale Matrix-Transform erhalten) --><g
     id="g14-6"
     transform="matrix(0.80066113,0,0,0.80066113,-2.6421651,4.3415756)"
     inkscape:label="gPowerButton"><circle
       id="power-button"
       class="button"
       data-state="ON"
       data-command="powerON"
       cx="38.517803"
       cy="27.679308"
       r="12.833484"
       style="fill:#501616;stroke:#66aaff;stroke-width:1.5"
       inkscape:label="power-button" /><text
       id="power-button-text"
       class="text"
       data-comment="powerON"
       data-state="ON"
       x="38.933598"
       y="30.198656"
       text-anchor="middle"
       style="font-style:normal;font-weight:bold;font-size:8px;font-family:Cantarell, sans-serif;fill:#ffffff;stroke:none"
       inkscape:label="power-button-text">OFF</text></g></g></svg>
